<svg xmlns="http://www.w3.org/2000/svg" width="512" height="512" viewBox="0 0 512 512"><svg x="40" y="40" width="432" height="432" viewBox="-308 32 2204 2204"><g transform="translate(0,2198) scale(0.1,-0.1)"><path fill="#000" d="M2996 13845 c-54 -19 -106 -64 -134 -116 -24 -44 -24 -46 -18 -254 7 -252 48 -708 85 -935 5 -30 12 -89 16 -130 7 -81 38 -269 86 -525 36 -191 135 -584 214 -855 31 -107 61 -211 66 -230 19 -80 221 -595 329 -840 53 -122 224 -451 313 -605 77 -132 328 -515 349 -533 11 -9 27 0 75 41 176 150 530 390 808 547 338 191 832 435 1125 555 58 24 177 73 265 110 88 36 198 81 245 100 115 45 554 206 660 240 47 15 126 43 175 62 118 45 922 305 1385 448 1750 541 2848 1031 3755 1676 61 43 131 100 157 126 43 44 48 55 62 128 18 93 43 398 52 635 5 136 3 172 -10 208 -24 66 -53 100 -109 130 l-52 27 -4930 2 c-4174 2 -4936 0 -4969 -12z"></path><path fill="#000" d="M11937 9400 c-49 -30 -371 -160 -862 -347 -232 -88 -791 -273 -1158 -384 -494 -148 -599 -180 -657 -200 -30 -10 -89 -27 -130 -38 -74 -19 -337 -98 -560 -167 -105 -33 -556 -182 -810 -269 -122 -41 -159 -55 -335 -126 -71 -28 -151 -60 -177 -70 -49 -19 -275 -117 -443 -192 -130 -57 -355 -172 -475 -241 -52 -30 -121 -69 -152 -86 -32 -16 -58 -34 -58 -38 0 -9 11 -13 195 -83 72 -27 189 -65 260 -85 72 -20 141 -39 155 -43 l25 -8 3 -2132 c1 -1173 -1 -2145 -5 -2161 -5 -15 -37 -53 -75 -86 -36 -32 -117 -106 -180 -163 -460 -424 -744 -687 -881 -816 -87 -82 -198 -186 -247 -230 -48 -44 -187 -174 -310 -290 -122 -115 -295 -278 -384 -362 -330 -310 -429 -413 -463 -483 -53 -109 -69 -242 -33 -285 11 -13 428 -15 3646 -15 3594 0 3633 0 3644 20 6 10 13 46 16 78 6 50 2 71 -20 128 -34 90 -44 104 -167 237 -111 120 -183 191 -1294 1277 -396 387 -784 767 -863 845 l-142 141 2 2148 3 2149 165 47 c194 56 226 67 385 130 121 48 430 198 540 262 219 128 552 362 718 503 190 163 440 420 619 639 197 239 550 769 536 804 -1 5 -16 1 -31 -8z"></path></g></svg></svg>