<svg xmlns="http://www.w3.org/2000/svg" width="64" height="64" viewBox="0 0 64 64"><rect x="12" y="6" width="40" height="52" rx="5" fill="#fbf8f2" stroke="#0f5d5c" stroke-width="3"></rect><rect x="17" y="11" width="30" height="7.5" rx="2" fill="#0f5d5c"></rect><g fill="#c3bcae"><rect x="17" y="22" width="8.6" height="6.6" rx="1.4"></rect><rect x="27.7" y="22" width="8.6" height="6.6" rx="1.4"></rect><rect x="38.4" y="22" width="8.6" height="6.6" rx="1.4"></rect><rect x="17" y="30.3" width="8.6" height="6.6" rx="1.4"></rect><rect x="27.7" y="30.3" width="8.6" height="6.6" rx="1.4"></rect><rect x="38.4" y="30.3" width="8.6" height="6.6" rx="1.4"></rect><rect x="17" y="38.6" width="8.6" height="6.6" rx="1.4"></rect><rect x="27.7" y="38.6" width="8.6" height="6.6" rx="1.4"></rect><rect x="38.4" y="38.6" width="8.6" height="6.6" rx="1.4"></rect><rect x="17" y="46.9" width="8.6" height="6.6" rx="1.4"></rect><rect x="27.7" y="46.9" width="8.6" height="6.6" rx="1.4"></rect><rect x="38.4" y="46.9" width="8.6" height="6.6" rx="1.4"></rect></g><g transform="translate(27,57) rotate(-45)"><path d="M0 0 L8 -4.6 L33 -4.6 Q36 -4.6 36 -3.6 L36 3.6 Q36 4.6 33 4.6 L8 4.6 Z" fill="#0f5d5c" stroke="#fbf8f2" stroke-width="1.7" stroke-linejoin="round"></path><path d="M8 -4.6 L8 4.6" stroke="#fbf8f2" stroke-width="1.5"></path><path d="M0 0 L5 -3 L5 3 Z" fill="#201d18"></path><path d="M30 -4.6 L33 -4.6 Q36 -4.6 36 -3.6 L36 3.6 Q36 4.6 33 4.6 L30 4.6 Z" fill="#b9b1a1" stroke="#fbf8f2" stroke-width="1.7" stroke-linejoin="round"></path></g></svg>